# xmcd
#
# Track frame offsets: 
#        150
#        19360
#        46025
#        74920
#        109955
#        147427
#
# Disc length: 2773 seconds
#
# Revision: 5
# Processed by: cddbd v1.5.2PL0 Copyright (c) Steve Scherf et al.
# Submitted via: ExactAudioCopy v0.95b4
#
DISCID=5b0ad306
DTITLE=Dream Theater - Hollow Years (Japanese Single)
DYEAR=1997
DGENRE=Progressive Metal
TTITLE0=Hollow Years (Radio Edit)
TTITLE1=Hollow Years (LP Version)
TTITLE2=You Or Me (You Not Me - Demo Version)
TTITLE3=The Way It Used To Be (Non LP Track)
TTITLE4=Burning My Soul (Live) (Bonus Track)
TTITLE5=Another Hand - The Killing Hand (Live) (Bonus Track)
EXTD=
EXTT0=
EXTT1=
EXTT2=
EXTT3=
EXTT4=
EXTT5=
PLAYORDER=
